<svg width="103" height="100" viewBox="0 0 103 100" fill="none" xmlns="http://www.w3.org/2000/svg">
<rect width="100" height="100" rx="50" fill="#01C674" fill-opacity="0.11"/>
<path d="M39.1111 64.5971C38.2556 64.5971 37.5234 64.2798 36.9147 63.6451C36.3059 63.0104 36.001 62.2465 36 61.3533V38.6466C36 37.7546 36.3049 36.9912 36.9147 36.3565C37.5244 35.7218 38.2566 35.4039 39.1111 35.4028H60.8889C61.7444 35.4028 62.4771 35.7207 63.0869 36.3565C63.6967 36.9923 64.001 37.7557 64 38.6466V61.3533C64 62.2454 63.6956 63.0093 63.0869 63.6451C62.4781 64.2809 61.7455 64.5982 60.8889 64.5971H39.1111ZM40.6667 58.1095H59.3333L53.5 50L48.8333 56.4876L45.3333 51.6219L40.6667 58.1095Z" fill="#01C674"/>
<rect x="72.126" y="67.3774" width="30" height="30" rx="15" fill="#01C674"/>
<path d="M87.126 76.3822C87.3249 76.3822 87.5157 76.4646 87.6563 76.6112C87.797 76.7579 87.876 76.9568 87.876 77.1642V81.5955H92.126C92.3249 81.5955 92.5157 81.6779 92.6563 81.8245C92.797 81.9712 92.876 82.1701 92.876 82.3775C92.876 82.5849 92.797 82.7838 92.6563 82.9304C92.5157 83.0771 92.3249 83.1595 92.126 83.1595H87.876V87.5907C87.876 87.7981 87.797 87.997 87.6563 88.1437C87.5157 88.2903 87.3249 88.3727 87.126 88.3727C86.9271 88.3727 86.7363 88.2903 86.5956 88.1437C86.455 87.997 86.376 87.7981 86.376 87.5907V83.1595H82.126C81.9271 83.1595 81.7363 83.0771 81.5956 82.9304C81.455 82.7838 81.376 82.5849 81.376 82.3775C81.376 82.1701 81.455 81.9712 81.5956 81.8245C81.7363 81.6779 81.9271 81.5955 82.126 81.5955H86.376V77.1642C86.376 76.9568 86.455 76.7579 86.5956 76.6112C86.7363 76.4646 86.9271 76.3822 87.126 76.3822Z" fill="white"/>
</svg>
