<svg width="25" height="24" viewBox="0 0 25 24" fill="none" xmlns="http://www.w3.org/2000/svg">
<path d="M2.5 18.308C2.5 20.008 3.8 21.308 5.5 21.308H19.5C21.2 21.308 22.5 20.008 22.5 18.308V10.308H2.5V18.308ZM19.5 3.30801H17.5V2.30801C17.5 1.70801 17.1 1.30801 16.5 1.30801C15.9 1.30801 15.5 1.70801 15.5 2.30801V3.30801H9.5V2.30801C9.5 1.70801 9.1 1.30801 8.5 1.30801C7.9 1.30801 7.5 1.70801 7.5 2.30801V3.30801H5.5C3.8 3.30801 2.5 4.60801 2.5 6.30801V8.30801H22.5V6.30801C22.5 4.60801 21.2 3.30801 19.5 3.30801Z" fill="#CCCCCC"/>
</svg>
