<svg width="18" height="18" viewBox="0 0 18 18" fill="none" xmlns="http://www.w3.org/2000/svg">
<path fill-rule="evenodd" clip-rule="evenodd" d="M17.6809 8.93866C17.6809 13.8753 13.7229 17.8773 8.84043 17.8773C3.958 17.8773 0 13.8753 0 8.93866C0 4.00197 3.958 0 8.84043 0C11.1321 0 13.2201 0.881667 14.7908 2.32783L12.1802 5.06521L12.2049 5.09208C11.309 4.29036 10.1309 3.80369 8.84043 3.80369C6.03562 3.80369 3.76188 6.1027 3.76188 8.93866C3.76188 11.7746 6.03562 14.0736 8.84043 14.0736C10.9807 14.0736 12.8118 12.7349 13.5593 10.8405H8.84043V7.227H12.5731V7.26882L13.3589 7.26883H17.5269C17.628 7.80979 17.6809 8.36798 17.6809 8.93866Z" fill="#E9B71D"/>
<path fill-rule="evenodd" clip-rule="evenodd" d="M14.8221 15.5205C14.7045 15.6298 14.584 15.7359 14.4607 15.8387L11.8855 13.3589L11.6392 13.2357C11.8611 13.0838 12.0705 12.9147 12.2655 12.7301C12.8269 12.2113 13.2727 11.5668 13.5593 10.8405H8.84045V7.26883H12.5284V7.31065L13.3142 7.31065H17.4822C17.5833 7.85163 17.6362 8.40983 17.6362 8.98053C17.6362 11.5625 16.5535 13.8888 14.8221 15.5205Z" fill="#4385F4"/>
<path fill-rule="evenodd" clip-rule="evenodd" d="M0.9823 4.79584L4.00483 7.26882L4.01431 7.26782C4.69996 5.25212 6.59166 3.80369 8.81795 3.80369C10.1084 3.80369 11.2865 4.29036 12.1824 5.09208L12.1577 5.06521L14.7683 2.32783C13.1976 0.881669 11.1096 0 8.81795 0C5.41415 0 2.45965 1.94504 0.9823 4.79584Z" fill="#DA4948"/>
<path fill-rule="evenodd" clip-rule="evenodd" d="M12.237 12.8721C11.3358 13.6753 10.151 14.1602 8.8552 14.1538C6.59581 14.1427 4.68833 12.6415 4.03921 10.5757C3.61122 10.7702 1.97589 12.2057 1.19948 12.9105L1.00591 13.0868C2.46283 15.9647 5.41834 17.9408 8.83658 17.9575C10.9809 17.968 12.9507 17.2057 14.4877 15.9291L11.9486 13.46L11.693 13.3307C11.9027 13.1926 12.1016 13.0393 12.2884 12.8723L12.237 12.8721ZM16.7505 7.3933L17.5759 7.39734L17.5748 7.39161L16.7506 7.38758L16.7505 7.3933Z" fill="#36A563"/>
</svg>
