<svg width="25" height="24" viewBox="0 0 25 24" fill="none" xmlns="http://www.w3.org/2000/svg">
<path fill-rule="evenodd" clip-rule="evenodd" d="M3.5 18.4755V12.5851C3.5 11.9966 3.5 11.7022 3.57309 11.4283C3.63787 11.1856 3.74502 10.9559 3.88892 10.7484C4.0513 10.5142 4.27697 10.32 4.72937 9.93244L10.1312 5.30489C10.9698 4.58643 11.3892 4.22718 11.8615 4.09043C12.2779 3.96986 12.7218 3.96986 13.1383 4.09043C13.6109 4.22728 14.0309 4.58687 14.8708 5.30642L20.2709 9.93244C20.7232 10.32 20.949 10.5142 21.1114 10.7484C21.2553 10.9559 21.3616 11.1856 21.4264 11.4283C21.4995 11.7022 21.5 11.9966 21.5 12.5851V18.4794C21.5 19.7107 21.5 20.327 21.255 20.7978C21.0393 21.2123 20.6942 21.5489 20.2708 21.7601C19.79 22 19.1611 22 17.9035 22H15.5V18C15.5 16.3431 14.1569 15 12.5 15C10.8431 15 9.5 16.3431 9.5 18V22H7.09652C5.83887 22 5.2091 22 4.72827 21.7601C4.30491 21.5489 3.96095 21.2123 3.74524 20.7978C3.5 20.3265 3.5 19.7092 3.5 18.4755Z" fill="#01C674"/>
<path d="M3.57309 11.4283L4.53927 11.6862L4.53927 11.6862L3.57309 11.4283ZM3.88892 10.7484L4.7107 11.3182L4.71071 11.3182L3.88892 10.7484ZM4.72937 9.93244L4.07879 9.173H4.07879L4.72937 9.93244ZM10.1312 5.30489L9.48058 4.54546L9.48057 4.54546L10.1312 5.30489ZM11.8615 4.09043L12.1396 5.05098L11.8615 4.09043ZM13.1383 4.09043L13.4164 3.12989L13.4164 3.12989L13.1383 4.09043ZM14.8708 5.30642L14.2203 6.06585L14.8708 5.30642ZM20.2709 9.93244L20.9214 9.173L20.9214 9.173L20.2709 9.93244ZM21.1114 10.7484L21.9332 10.1786V10.1786L21.1114 10.7484ZM21.4264 11.4283L22.3926 11.1704V11.1704L21.4264 11.4283ZM21.255 20.7978L22.1421 21.2594H22.1421L21.255 20.7978ZM20.2708 21.7601L20.7172 22.655L20.7172 22.655L20.2708 21.7601ZM15.5 22H14.5C14.5 22.5523 14.9477 23 15.5 23V22ZM9.5 22V23C10.0523 23 10.5 22.5523 10.5 22H9.5ZM4.72827 21.7601L4.28188 22.655L4.28188 22.655L4.72827 21.7601ZM3.74524 20.7978L2.85817 21.2594H2.85817L3.74524 20.7978ZM2.5 12.5851V18.4755H4.5V12.5851H2.5ZM2.60691 11.1704C2.4921 11.6006 2.5 12.05 2.5 12.5851H4.5C4.5 11.9432 4.5079 11.8037 4.53927 11.6862L2.60691 11.1704ZM3.06713 10.1786C2.85881 10.4791 2.70206 10.8139 2.60691 11.1704L4.53927 11.6862C4.57367 11.5573 4.63123 11.4328 4.7107 11.3182L3.06713 10.1786ZM4.07879 9.173C3.6651 9.5274 3.31984 9.81413 3.06713 10.1786L4.71071 11.3182C4.78276 11.2143 4.88885 11.1126 5.37995 10.6919L4.07879 9.173ZM9.48057 4.54546L4.07879 9.173L5.37995 10.6919L10.7817 6.06432L9.48057 4.54546ZM11.5834 3.12989C11.1907 3.24357 10.8601 3.44048 10.543 3.67263C10.2363 3.89718 9.88835 4.19613 9.48058 4.54546L10.7817 6.06433C11.2126 5.69519 11.4937 5.45528 11.7244 5.28641C11.9447 5.12513 12.06 5.07404 12.1396 5.05098L11.5834 3.12989ZM13.4164 3.12989C12.8183 2.9567 12.1815 2.9567 11.5834 3.12989L12.1396 5.05098C12.3744 4.98301 12.6254 4.98301 12.8602 5.05098L13.4164 3.12989ZM15.5214 4.54699C15.113 4.19707 14.7646 3.89778 14.4575 3.67298C14.14 3.44062 13.8092 3.24362 13.4164 3.12989L12.8602 5.05098C12.94 5.0741 13.0555 5.12531 13.2762 5.28684C13.5072 5.45594 13.7888 5.69622 14.2203 6.06585L15.5214 4.54699ZM20.9214 9.173L15.5214 4.54699L14.2203 6.06585L19.6203 10.6919L20.9214 9.173ZM21.9332 10.1786C21.6804 9.81409 21.335 9.52729 20.9214 9.173L19.6203 10.6919C20.1115 11.1127 20.2176 11.2143 20.2896 11.3182L21.9332 10.1786ZM22.3926 11.1704C22.2979 10.8159 22.1426 10.4807 21.9332 10.1786L20.2896 11.3182C20.3679 11.4312 20.4253 11.5553 20.4602 11.6862L22.3926 11.1704ZM22.5 12.5851C22.5 12.0484 22.5073 11.6002 22.3926 11.1704L20.4602 11.6862C20.4917 11.8041 20.5 11.9447 20.5 12.5851H22.5ZM22.5 18.4794V12.5851H20.5V18.4794H22.5ZM22.1421 21.2594C22.3511 20.8577 22.43 20.4373 22.4659 20.007C22.5008 19.5889 22.5 19.0782 22.5 18.4794H20.5C20.5 19.1119 20.4992 19.525 20.4728 19.8406C20.4475 20.1439 20.4039 20.267 20.3679 20.3361L22.1421 21.2594ZM20.7172 22.655C21.3258 22.3514 21.827 21.8648 22.1421 21.2594L20.3679 20.3361C20.2516 20.5597 20.0626 20.7465 19.8244 20.8653L20.7172 22.655ZM17.9035 23C18.5161 23 19.0346 23.0007 19.4583 22.9668C19.8931 22.932 20.3143 22.856 20.7172 22.655L19.8244 20.8653C19.7465 20.9042 19.6129 20.9481 19.2987 20.9732C18.9733 20.9993 18.5485 21 17.9035 21V23ZM15.5 23H17.9035V21H15.5V23ZM14.5 18V22H16.5V18H14.5ZM12.5 16C13.6046 16 14.5 16.8954 14.5 18H16.5C16.5 15.7909 14.7091 14 12.5 14V16ZM10.5 18C10.5 16.8954 11.3954 16 12.5 16V14C10.2909 14 8.5 15.7909 8.5 18H10.5ZM10.5 22V18H8.5V22H10.5ZM7.09652 23H9.5V21H7.09652V23ZM4.28188 22.655C4.68489 22.856 5.10644 22.932 5.54134 22.9668C5.96522 23.0007 6.48384 23 7.09652 23V21C6.45155 21 6.02646 20.9993 5.70084 20.9732C5.38624 20.948 5.25248 20.9041 5.17466 20.8653L4.28188 22.655ZM2.85817 21.2594C3.1727 21.8638 3.67218 22.3508 4.28188 22.655L5.17466 20.8653C4.93763 20.7471 4.7492 20.5607 4.6323 20.3361L2.85817 21.2594ZM2.5 18.4755C2.5 19.0755 2.49919 19.5871 2.53412 20.0057C2.57007 20.4366 2.64897 20.8574 2.85817 21.2594L4.6323 20.3361C4.59627 20.2669 4.55255 20.1434 4.52719 19.8394C4.50081 19.5232 4.5 19.1092 4.5 18.4755H2.5Z" fill="#01C674"/>
</svg>
