<svg width="25" height="25" viewBox="0 0 25 25" fill="none" xmlns="http://www.w3.org/2000/svg">
<path d="M5.54481 20.12C5.45081 20.0267 5.40381 19.9107 5.40381 19.772C5.40381 19.6333 5.45048 19.52 5.54381 19.432L7.59281 17.383C7.05948 16.7637 6.64047 16.062 6.33581 15.278C6.03114 14.494 5.87881 13.663 5.87881 12.785C5.87881 10.831 6.55681 9.176 7.91281 7.82C9.27014 6.46333 10.9255 5.785 12.8788 5.785H18.8408C19.1341 5.785 19.3805 5.88466 19.5798 6.084C19.7791 6.284 19.8788 6.53066 19.8788 6.824V12.785C19.8788 14.739 19.2008 16.3943 17.8448 17.751C16.4875 19.107 14.8321 19.785 12.8788 19.785C12.0008 19.785 11.1741 19.6327 10.3988 19.328C9.62348 19.0233 8.92581 18.6047 8.30581 18.072L6.23281 20.12C6.14348 20.2133 6.02981 20.26 5.89181 20.26C5.75381 20.26 5.63881 20.2133 5.54481 20.12ZM9.61381 16.048C9.70714 16.1513 9.82214 16.201 9.95881 16.197C10.0955 16.193 10.2118 16.144 10.3078 16.05L14.2328 12.145C14.3428 12.0343 14.3978 11.9153 14.3978 11.788C14.3978 11.6607 14.3445 11.5437 14.2378 11.437C14.1411 11.3397 14.0238 11.291 13.8858 11.291C13.7471 11.291 13.6335 11.3377 13.5448 11.431L9.61381 15.362C9.52047 15.4527 9.47381 15.5657 9.47381 15.701C9.47381 15.8363 9.52047 15.952 9.61381 16.048Z" fill="#01C674"/>
</svg>
