<svg width="12" height="22" viewBox="0 0 12 22" fill="none" xmlns="http://www.w3.org/2000/svg">
<path d="M11.5411 21.5157C11.8349 21.2056 12 20.785 12 20.3464C12 19.9078 11.8349 19.4872 11.5411 19.1771L3.78308 10.99L11.5411 2.80297C11.8266 2.49103 11.9846 2.07324 11.981 1.63958C11.9774 1.20592 11.8126 0.791086 11.522 0.48443C11.2314 0.177774 10.8383 0.00383186 10.4274 6.29425e-05C10.0165 -0.00370407 9.62058 0.163004 9.32499 0.464283L0.458878 9.82067C0.165059 10.1308 0 10.5514 0 10.99C0 11.4286 0.165059 11.8492 0.458878 12.1594L9.32499 21.5157C9.6189 21.8258 10.0175 22 10.4331 22C10.8486 22 11.2472 21.8258 11.5411 21.5157Z" fill="#AAAAAA"/>
</svg>
