<svg width="25" height="24" viewBox="0 0 25 24" fill="none" xmlns="http://www.w3.org/2000/svg">
<path d="M19.062 3.5H5.06201C3.96201 3.5 3.06201 4.4 3.06201 5.5V19.5C3.06201 20.6 3.96201 21.5 5.06201 21.5H19.062C20.162 21.5 21.062 20.6 21.062 19.5V5.5C21.062 4.4 20.162 3.5 19.062 3.5ZM13.062 17.5H8.06201C7.51201 17.5 7.06201 17.05 7.06201 16.5C7.06201 15.95 7.51201 15.5 8.06201 15.5H13.062C13.612 15.5 14.062 15.95 14.062 16.5C14.062 17.05 13.612 17.5 13.062 17.5ZM16.062 13.5H8.06201C7.51201 13.5 7.06201 13.05 7.06201 12.5C7.06201 11.95 7.51201 11.5 8.06201 11.5H16.062C16.612 11.5 17.062 11.95 17.062 12.5C17.062 13.05 16.612 13.5 16.062 13.5ZM16.062 9.5H8.06201C7.51201 9.5 7.06201 9.05 7.06201 8.5C7.06201 7.95 7.51201 7.5 8.06201 7.5H16.062C16.612 7.5 17.062 7.95 17.062 8.5C17.062 9.05 16.612 9.5 16.062 9.5Z" fill="#D1D2D1"/>
</svg>
