<svg width="24" height="25" viewBox="0 0 24 25" fill="none" xmlns="http://www.w3.org/2000/svg">
<g clip-path="url(#clip0_37_218)">
<path d="M12 23.4793C14.9553 23.4793 17.7895 22.3053 19.8792 20.2156C21.9689 18.1259 23.1429 15.2917 23.1429 12.3364C23.1429 9.38116 21.9689 6.54693 19.8792 4.45724C17.7895 2.36755 14.9553 1.19357 12 1.19357C9.04477 1.19357 6.21054 2.36755 4.12085 4.45724C2.03115 6.54693 0.857178 9.38116 0.857178 12.3364C0.857178 15.2917 2.03115 18.1259 4.12085 20.2156C6.21054 22.3053 9.04477 23.4793 12 23.4793Z" stroke="#01C674" stroke-width="1.71429" stroke-linecap="round" stroke-linejoin="round"/>
<path d="M1.71436 16.6221H4.71436C5.51 16.6221 6.27307 16.3061 6.83568 15.7435C7.39828 15.1809 7.71436 14.4178 7.71436 13.6221V11.0507C7.71436 10.2551 8.03043 9.492 8.59304 8.92939C9.15564 8.36678 9.91871 8.05071 10.7144 8.05071C11.51 8.05071 12.2731 7.73464 12.8357 7.17203C13.3983 6.60942 13.7144 5.84636 13.7144 5.05071V1.31357M23.1429 12.165C22.2846 11.7196 21.3328 11.4846 20.3658 11.4793H16.7144C16.3204 11.4793 15.9303 11.5569 15.5663 11.7076C15.2023 11.8584 14.8716 12.0794 14.593 12.358C14.3145 12.6365 14.0935 12.9673 13.9427 13.3312C13.792 13.6952 13.7144 14.0853 13.7144 14.4793C13.7144 14.8732 13.792 15.2634 13.9427 15.6273C14.0935 15.9913 14.3145 16.322 14.593 16.6006C14.8716 16.8792 15.2023 17.1002 15.5663 17.2509C15.9303 17.4017 16.3204 17.4793 16.7144 17.4793C17.2827 17.4793 17.8277 17.705 18.2296 18.1069C18.6314 18.5088 18.8572 19.0538 18.8572 19.6221V21.1136" stroke="#01C674" stroke-width="1.71429" stroke-linecap="round" stroke-linejoin="round"/>
</g>
<defs>
<clipPath id="clip0_37_218">
<rect width="24" height="24" fill="white" transform="translate(0 0.336426)"/>
</clipPath>
</defs>
</svg>
