<svg width="4" height="13" viewBox="0 0 4 13" fill="none" xmlns="http://www.w3.org/2000/svg">
<path d="M1.68042 3.5C1.2826 3.5 0.901065 3.34196 0.61976 3.06066C0.338455 2.77936 0.18042 2.39782 0.18042 2C0.18042 1.60218 0.338455 1.22064 0.61976 0.93934C0.901065 0.658035 1.2826 0.5 1.68042 0.5C2.07824 0.5 2.45978 0.658035 2.74108 0.93934C3.02238 1.22064 3.18042 1.60218 3.18042 2C3.18042 2.39782 3.02238 2.77936 2.74108 3.06066C2.45978 3.34196 2.07824 3.5 1.68042 3.5ZM1.68042 8C1.2826 8 0.901065 7.84196 0.61976 7.56066C0.338455 7.27936 0.18042 6.89782 0.18042 6.5C0.18042 6.10218 0.338455 5.72064 0.61976 5.43934C0.901065 5.15804 1.2826 5 1.68042 5C2.07824 5 2.45978 5.15804 2.74108 5.43934C3.02238 5.72064 3.18042 6.10218 3.18042 6.5C3.18042 6.89782 3.02238 7.27936 2.74108 7.56066C2.45978 7.84196 2.07824 8 1.68042 8ZM1.68042 12.5C1.2826 12.5 0.901065 12.342 0.61976 12.0607C0.338455 11.7794 0.18042 11.3978 0.18042 11C0.18042 10.6022 0.338455 10.2206 0.61976 9.93934C0.901065 9.65804 1.2826 9.5 1.68042 9.5C2.07824 9.5 2.45978 9.65804 2.74108 9.93934C3.02238 10.2206 3.18042 10.6022 3.18042 11C3.18042 11.3978 3.02238 11.7794 2.74108 12.0607C2.45978 12.342 2.07824 12.5 1.68042 12.5Z" fill="#B9BBB9"/>
</svg>
