<svg width="23" height="26" viewBox="0 0 23 26" fill="none" xmlns="http://www.w3.org/2000/svg">
<path d="M22.672 5.94253C22.672 8.21547 20.7426 10.0644 18.3709 10.0644C15.9991 10.0644 14.0698 8.21547 14.0698 5.94253C14.0698 3.6696 15.9991 1.82064 18.3709 1.82064C20.7426 1.82064 22.672 3.6696 22.672 5.94253ZM20.2142 12.1725C19.5998 12.3256 18.9853 12.4198 18.3709 12.4198C16.5793 12.4167 14.8621 11.7333 13.5952 10.5192C12.3284 9.30517 11.6152 7.65945 11.612 5.94253C11.612 4.21134 12.3248 2.64502 13.4553 1.47911C13.2323 1.21712 12.9511 1.00611 12.6322 0.861463C12.3133 0.716812 11.9648 0.642162 11.612 0.642951C10.2602 0.642951 9.15422 1.70287 9.15422 2.99832V3.33985C5.50442 4.37621 3.00978 7.59129 3.00978 11.2421V18.3082L0.552002 20.6636V21.8413H22.672V20.6636L20.2142 18.3082V12.1725ZM11.612 25.3743C12.9761 25.3743 14.0698 24.3262 14.0698 23.019H9.15422C9.15422 23.6437 9.41317 24.2427 9.87409 24.6845C10.335 25.1262 10.9602 25.3743 11.612 25.3743Z" fill="#D9D9D9"/>
<circle cx="18.4324" cy="5.8374" r="4.53885" fill="#DC642C"/>
</svg>
