<svg width="25" height="24" viewBox="0 0 25 24" fill="none" xmlns="http://www.w3.org/2000/svg">
<path fill-rule="evenodd" clip-rule="evenodd" d="M3.08579 19.4142C3.46086 19.7893 3.96957 20 4.5 20H20.5C21.0304 20 21.5391 19.7893 21.9142 19.4142C22.2893 19.0391 22.5 18.5304 22.5 18V6C22.5 5.46957 22.2893 4.96086 21.9142 4.58579C21.5391 4.21071 21.0304 4 20.5 4H4.5C3.96957 4 3.46086 4.21071 3.08579 4.58579C2.71071 4.96086 2.5 5.46957 2.5 6V18C2.5 18.5304 2.71071 19.0391 3.08579 19.4142ZM8.5 11.5C9.05228 11.5 9.5 11.0523 9.5 10.5C9.5 9.94772 9.05228 9.5 8.5 9.5C7.94772 9.5 7.5 9.94772 7.5 10.5C7.5 11.0523 7.94772 11.5 8.5 11.5ZM16.5 11.5C17.0523 11.5 17.5 11.0523 17.5 10.5C17.5 9.94772 17.0523 9.5 16.5 9.5C15.9477 9.5 15.5 9.94772 15.5 10.5C15.5 11.0523 15.9477 11.5 16.5 11.5ZM9.47095 13.3321C9.3799 13.0764 9.10056 12.9394 8.84189 13.0257C8.57991 13.113 8.43833 13.3961 8.52566 13.6581L9 13.5C8.52566 13.6581 8.5258 13.6585 8.52594 13.659L8.52624 13.6599L8.52688 13.6617L8.52833 13.6659L8.53192 13.676C8.53464 13.6834 8.53802 13.6923 8.54211 13.7025C8.5503 13.723 8.56138 13.7489 8.57591 13.7794C8.60498 13.8405 8.64787 13.9201 8.70897 14.0117C8.8316 14.1957 9.02609 14.4258 9.325 14.65C9.9278 15.1021 10.9141 15.5 12.5 15.5C14.0859 15.5 15.0722 15.1021 15.675 14.65C15.9739 14.4258 16.1684 14.1957 16.291 14.0117C16.3521 13.9201 16.395 13.8405 16.4241 13.7794C16.4386 13.7489 16.4497 13.723 16.4579 13.7025C16.462 13.6923 16.4654 13.6834 16.4681 13.676L16.4717 13.6659L16.4731 13.6617L16.4738 13.6599L16.4741 13.659C16.4742 13.6585 16.4743 13.6581 16 13.5L16.4743 13.6581C16.5617 13.3961 16.4201 13.113 16.1581 13.0257C15.8994 12.9394 15.6201 13.0764 15.529 13.3321C15.5285 13.3333 15.5277 13.3354 15.5263 13.3384C15.5251 13.3413 15.5234 13.345 15.5212 13.3495C15.5112 13.3705 15.4916 13.4081 15.459 13.457C15.3941 13.5543 15.2761 13.6992 15.075 13.85C14.6778 14.1479 13.9141 14.5 12.5 14.5C11.0859 14.5 10.3222 14.1479 9.925 13.85C9.72391 13.6992 9.6059 13.5543 9.54103 13.457C9.50838 13.4081 9.48877 13.3705 9.47877 13.3495C9.47447 13.3404 9.47195 13.3345 9.47095 13.3321Z" fill="#D1D2D1"/>
</svg>
