<svg width="24" height="24" viewBox="0 0 24 24" fill="none" xmlns="http://www.w3.org/2000/svg">
<path d="M5.9999 7.20002C5.9999 5.92699 6.50562 4.70609 7.40579 3.80591C8.30596 2.90574 9.52686 2.40002 10.7999 2.40002C12.0729 2.40002 13.2938 2.90574 14.194 3.80591C15.0942 4.70609 15.5999 5.92699 15.5999 7.20002C15.5999 8.47306 15.0942 9.69396 14.194 10.5941C13.2938 11.4943 12.0729 12 10.7999 12C9.52686 12 8.30596 11.4943 7.40579 10.5941C6.50562 9.69396 5.9999 8.47306 5.9999 7.20002ZM10.7999 3.60002C9.84512 3.60002 8.92945 3.97931 8.25432 4.65444C7.57919 5.32957 7.1999 6.24525 7.1999 7.20002C7.1999 8.1548 7.57919 9.07048 8.25432 9.74561C8.92945 10.4207 9.84512 10.8 10.7999 10.8C11.7547 10.8 12.6704 10.4207 13.3455 9.74561C14.0206 9.07048 14.3999 8.1548 14.3999 7.20002C14.3999 6.24525 14.0206 5.32957 13.3455 4.65444C12.6704 3.97931 11.7547 3.60002 10.7999 3.60002ZM2.3999 15.6C2.3999 14.2644 3.4835 13.2 4.8107 13.2H15.2051C15.0731 13.5756 14.9999 13.98 14.9999 14.4H4.8107C4.1375 14.4 3.5999 14.9364 3.5999 15.6C3.5999 17.1708 4.3463 18.3408 5.6075 19.1436C6.8915 19.9632 8.7179 20.4 10.7999 20.4C11.6495 20.4 12.4559 20.328 13.1999 20.1864V21.4056C12.4343 21.5364 11.6279 21.6 10.7999 21.6C8.5739 21.6 6.5003 21.1368 4.9619 20.1564C3.3995 19.1604 2.3999 17.628 2.3999 15.6Z" fill="#FF3131"/>
<path d="M19.25 22.5C20.3772 22.5 21.4582 22.0522 22.2552 21.2552C23.0522 20.4582 23.5 19.3772 23.5 18.25C23.5 17.1228 23.0522 16.0418 22.2552 15.2448C21.4582 14.4478 20.3772 14 19.25 14C18.1228 14 17.0418 14.4478 16.2448 15.2448C15.4478 16.0418 15 17.1228 15 18.25C15 19.3772 15.4478 20.4582 16.2448 21.2552C17.0418 22.0522 18.1228 22.5 19.25 22.5ZM17.4286 17.6429H21.0714C21.2325 17.6429 21.3869 17.7068 21.5007 17.8207C21.6146 17.9345 21.6786 18.089 21.6786 18.25C21.6786 18.411 21.6146 18.5655 21.5007 18.6793C21.3869 18.7932 21.2325 18.8571 21.0714 18.8571H17.4286C17.2675 18.8571 17.1131 18.7932 16.9993 18.6793C16.8854 18.5655 16.8214 18.411 16.8214 18.25C16.8214 18.089 16.8854 17.9345 16.9993 17.8207C17.1131 17.7068 17.2675 17.6429 17.4286 17.6429Z" fill="#FF3131"/>
</svg>
